<svg xmlns="http://www.w3.org/2000/svg" width="18" height="14" viewBox="0 0 18 14">
  <defs>
    <style>
      .cls-1 {
        fill-rule: evenodd;
      }
    </style>
  </defs>
  <path id="photo.svg" class="cls-1" d="M465,331.818a2.365,2.365,0,1,0,2.34,2.364A2.355,2.355,0,0,0,465,331.818Zm6.66-3.456h-2.7A2.353,2.353,0,0,0,466.62,326h-3.24a2.353,2.353,0,0,0-2.34,2.365h-2.7a2.352,2.352,0,0,0-2.34,2.364v6.912A2.353,2.353,0,0,0,458.34,340h13.32a2.353,2.353,0,0,0,2.34-2.365v-6.912A2.352,2.352,0,0,0,471.66,328.362Zm-6.66,10a4.184,4.184,0,1,1,4.14-4.184A4.167,4.167,0,0,1,465,338.366Z" transform="translate(-456 -326)"/>
</svg>
